<svg xmlns="http://www.w3.org/2000/svg" xmlns:xlink="http://www.w3.org/1999/xlink" viewBox="0 0 1200 680" width="100%" role="img" aria-labelledby="title desc">
<title id="title">Pranjal Tripathi — Technology Stack</title><desc id="desc">Grouped languages, backend technologies, database, tools, and core concepts.</desc><defs>
      <linearGradient id="grad" x1="0" y1="0" x2="1" y2="1"><stop offset="0" stop-color="#247bff" stop-opacity=".8"/><stop offset=".48" stop-color="#ffffff" stop-opacity=".08"/><stop offset="1" stop-color="#ff354f" stop-opacity=".75"/></linearGradient>
      <linearGradient id="blueGrad" x1="0" y1="0" x2="1" y2="1"><stop offset="0" stop-color="#247bff"/><stop offset="1" stop-color="#2f9bff"/></linearGradient>
      <linearGradient id="redGrad" x1="0" y1="0" x2="1" y2="1"><stop offset="0" stop-color="#ff354f"/><stop offset="1" stop-color="#ff6b7d"/></linearGradient>
      <radialGradient id="orbBlue"><stop offset="0" stop-color="#247bff" stop-opacity=".30"/><stop offset="1" stop-color="#247bff" stop-opacity="0"/></radialGradient>
      <radialGradient id="orbRed"><stop offset="0" stop-color="#ff354f" stop-opacity=".20"/><stop offset="1" stop-color="#ff354f" stop-opacity="0"/></radialGradient>
      <filter id="glowBlue" x="-50%" y="-50%" width="200%" height="200%"><feGaussianBlur stdDeviation="8" result="b"/><feMerge><feMergeNode in="b"/><feMergeNode in="SourceGraphic"/></feMerge></filter>
      <filter id="glowRed" x="-50%" y="-50%" width="200%" height="200%"><feGaussianBlur stdDeviation="7" result="b"/><feMerge><feMergeNode in="b"/><feMergeNode in="SourceGraphic"/></feMerge></filter>
      
    </defs><style>
:root { color-scheme: dark; }
.bg { fill:#070b16; }
.text { fill:#f4f7fb; font-family:Inter,ui-sans-serif,system-ui,-apple-system,BlinkMacSystemFont,"Segoe UI",sans-serif; }
.muted { fill:#9ca7b8; font-family:Inter,ui-sans-serif,system-ui,-apple-system,BlinkMacSystemFont,"Segoe UI",sans-serif; }
.eyebrow { fill:#7f8ba0; font-family:Inter,ui-sans-serif,system-ui,-apple-system,BlinkMacSystemFont,"Segoe UI",sans-serif; font-size:14px; font-weight:700; letter-spacing:2.6px; }
.label { fill:#6f7b90; font-family:Inter,ui-sans-serif,system-ui,-apple-system,BlinkMacSystemFont,"Segoe UI",sans-serif; font-size:12px; font-weight:700; letter-spacing:1.8px; }
.card { fill:#0d1322; stroke:url(#grad); stroke-width:1.25; }
.chip { fill:#0c1220; stroke:#1e2a3c; stroke-width:1; }
.blue { fill:#247bff; }
.red { fill:#ff354f; }
.green { fill:#a8d63b; }
.line { stroke:#1b2740; stroke-width:1; }
.glowBlue { filter:url(#glowBlue); }
.glowRed { filter:url(#glowRed); }
.enter { transform-box:fill-box; transform-origin:center; animation: rise .9s cubic-bezier(.2,.7,.2,1) .1s both; }
.enter2 { transform-box:fill-box; transform-origin:center; animation: rise .9s cubic-bezier(.2,.7,.2,1) .3s both; }
@keyframes rise { from { opacity:0; transform:translateY(18px); } to { opacity:1; transform:translateY(0); } }
@media (prefers-reduced-motion: reduce) { .enter,.enter2 { animation:none; opacity:1; transform:none; } .animated-role,.animated-slide,.animated-meter { visibility:hidden; } .rm-static { visibility:visible !important; } }
</style>
<rect class="bg" width="1200" height="680" rx="28"/>
<circle cx="980" cy="90" r="240" fill="url(#orbBlue)"/><circle cx="210" cy="610" r="240" fill="url(#orbRed)"/>
<g class="enter">
  <text x="70" y="78" class="eyebrow">TECH STACK</text>
  <text x="70" y="130" class="text" font-size="42" font-weight="800">Java-first backend toolkit</text>
  <text x="70" y="164" class="muted" font-size="18">A focused stack for building secure, persistent, testable REST services.</text>
</g>
<!-- subtle orbit elements -->
<g fill="none" stroke="#247bff" stroke-opacity=".20" stroke-width="1.2" transform="translate(915,355)">
  <ellipse rx="160" ry="54" transform="rotate(-16)"/><ellipse rx="160" ry="54" transform="rotate(34)"/><ellipse rx="160" ry="54" transform="rotate(84)"/>
  <circle r="5" fill="#247bff" stroke="none" class="glowBlue"><animateMotion dur="8s" repeatCount="indefinite" begin="0s" path="M150,0 C80,-60 -100,-40 -150,0 C-80,60 100,40 150,0 Z"/></circle>
</g>
<g class="enter2">
  <g transform="translate(70,220)"><rect width="320" height="180" rx="20" class="card"/>
    <text x="24" y="34" class="label">LANGUAGES</text>
    <g class="text" font-weight="700" font-size="18"><rect x="24" y="56" width="272" height="34" rx="17" class="chip"/><text x="40" y="79">JAVA</text><text x="258" y="79" fill="#247bff">01</text>
    <rect x="24" y="98" width="272" height="34" rx="17" class="chip"/><text x="40" y="121">C++</text><text x="258" y="121" fill="#247bff">02</text>
    <rect x="24" y="140" width="272" height="34" rx="17" class="chip"/><text x="40" y="163">SQL</text><text x="258" y="163" fill="#247bff">03</text></g>
  </g>
  <g transform="translate(410,220)"><rect width="390" height="180" rx="20" class="card"/>
    <text x="24" y="34" class="label">BACKEND</text>
    <g class="text" font-weight="650" font-size="15"><rect x="24" y="54" width="160" height="34" rx="17" class="chip"/><text x="40" y="76">Spring Boot</text><rect x="194" y="54" width="172" height="34" rx="17" class="chip"/><text x="210" y="76">Spring Security</text><rect x="24" y="96" width="182" height="34" rx="17" class="chip"/><text x="40" y="118">Spring Data JPA</text><rect x="216" y="96" width="150" height="34" rx="17" class="chip"/><text x="232" y="118">Hibernate</text><rect x="24" y="138" width="342" height="28" rx="14" class="chip"/><text x="40" y="157">JWT</text></g>
  </g>
  <g transform="translate(820,220)"><rect width="310" height="180" rx="20" class="card"/>
    <text x="24" y="34" class="label">DATABASE + TOOLS</text>
    <g class="text" font-weight="650" font-size="15"><rect x="24" y="55" width="110" height="34" rx="17" class="chip"/><text x="42" y="77">MySQL</text><rect x="144" y="55" width="70" height="34" rx="17" class="chip"/><text x="163" y="77">Git</text><rect x="224" y="55" width="62" height="34" rx="17" class="chip"/><text x="241" y="77">GitHub</text><rect x="24" y="97" width="96" height="34" rx="17" class="chip"/><text x="43" y="119">Maven</text><rect x="130" y="97" width="96" height="34" rx="17" class="chip"/><text x="149" y="119">Postman</text><rect x="236" y="97" width="50" height="34" rx="17" class="chip"/><text x="245" y="119">VS</text><rect x="24" y="139" width="262" height="28" rx="14" class="chip"/><text x="42" y="158">VS Code</text></g>
  </g>
</g>
<g transform="translate(70,445)" class="enter2">
  <text class="label">CORE CONCEPTS</text>
  <g transform="translate(0,18)" class="text" font-size="16" font-weight="700">
    <rect width="136" height="42" rx="21" class="chip"/><text x="22" y="27">REST APIs</text>
    <rect x="150" width="92" height="42" rx="21" class="chip"/><text x="176" y="27">JPA</text>
    <rect x="256" width="92" height="42" rx="21" class="chip"/><text x="278" y="27">JDBC</text>
    <rect x="362" width="80" height="42" rx="21" class="chip"/><text x="385" y="27">DSA</text>
    <rect x="456" width="84" height="42" rx="21" class="chip"/><text x="477" y="27">OOP</text>
  </g>
</g>
<text x="70" y="560" class="muted" font-size="15">Security • Persistence • Validation • Exception Handling • Software Development Fundamentals</text>
</svg>